TITLE ""
FILE "1Q_t_0749-0758.mp3" MP3
  TRACK 01 AUDIO
    TITLE "1Q_t_0749-0758_01"
    INDEX 01 00:00:00
  TRACK 02 AUDIO
    TITLE "1Q_t_0749-0758_02"
    INDEX 01 00:01:23
  TRACK 03 AUDIO
    TITLE "1Q_t_0749-0758_03"
    INDEX 01 00:01:31
  TRACK 04 AUDIO
    TITLE "1Q_t_0749-0758_04"
    INDEX 01 00:02:19
  TRACK 05 AUDIO
    TITLE "1Q_t_0749-0758_05"
    INDEX 01 00:02:25
  TRACK 06 AUDIO
    TITLE "1Q_t_0749-0758_06"
    INDEX 01 00:06:23
  TRACK 07 AUDIO
    TITLE "1Q_t_0749-0758_07"
    INDEX 01 00:06:70
  TRACK 08 AUDIO
    TITLE "1Q_t_0749-0758_08"
    INDEX 01 00:07:65
  TRACK 09 AUDIO
    TITLE "1Q_t_0749-0758_09"
    INDEX 01 00:07:73
  TRACK 10 AUDIO
    TITLE "1Q_t_0749-0758_10"
    INDEX 01 00:10:52
  TRACK 11 AUDIO
    TITLE "1Q_t_0749-0758_11"
    INDEX 01 00:10:60
  TRACK 12 AUDIO
    TITLE "1Q_t_0749-0758_12"
    INDEX 01 00:17:07
  TRACK 13 AUDIO
    TITLE "1Q_t_0749-0758_13"
    INDEX 01 00:17:54
  TRACK 14 AUDIO
    TITLE "1Q_t_0749-0758_14"
    INDEX 01 00:18:57
  TRACK 15 AUDIO
    TITLE "1Q_t_0749-0758_15"
    INDEX 01 00:18:65
  TRACK 16 AUDIO
    TITLE "1Q_t_0749-0758_16"
    INDEX 01 00:20:70
  TRACK 17 AUDIO
    TITLE "1Q_t_0749-0758_17"
    INDEX 01 00:21:01
  TRACK 18 AUDIO
    TITLE "1Q_t_0749-0758_18"
    INDEX 01 00:26:39
  TRACK 19 AUDIO
    TITLE "1Q_t_0749-0758_19"
    INDEX 01 00:27:09
  TRACK 20 AUDIO
    TITLE "1Q_t_0749-0758_20"
    INDEX 01 00:28:22
  TRACK 21 AUDIO
    TITLE "1Q_t_0749-0758_21"
    INDEX 01 00:28:30
  TRACK 22 AUDIO
    TITLE "1Q_t_0749-0758_22"
    INDEX 01 00:30:58
  TRACK 23 AUDIO
    TITLE "1Q_t_0749-0758_23"
    INDEX 01 00:30:68
  TRACK 24 AUDIO
    TITLE "1Q_t_0749-0758_24"
    INDEX 01 00:34:52
  TRACK 25 AUDIO
    TITLE "1Q_t_0749-0758_25"
    INDEX 01 00:35:24
  TRACK 26 AUDIO
    TITLE "1Q_t_0749-0758_26"
    INDEX 01 00:36:34
  TRACK 27 AUDIO
    TITLE "1Q_t_0749-0758_27"
    INDEX 01 00:36:41
  TRACK 28 AUDIO
    TITLE "1Q_t_0749-0758_28"
    INDEX 01 00:38:34
  TRACK 29 AUDIO
    TITLE "1Q_t_0749-0758_29"
    INDEX 01 00:38:42
  TRACK 30 AUDIO
    TITLE "1Q_t_0749-0758_30"
    INDEX 01 00:43:04
  TRACK 31 AUDIO
    TITLE "1Q_t_0749-0758_31"
    INDEX 01 00:43:49
  TRACK 32 AUDIO
    TITLE "1Q_t_0749-0758_32"
    INDEX 01 00:45:05
  TRACK 33 AUDIO
    TITLE "1Q_t_0749-0758_33"
    INDEX 01 00:45:13
  TRACK 34 AUDIO
    TITLE "1Q_t_0749-0758_34"
    INDEX 01 00:46:48
  TRACK 35 AUDIO
    TITLE "1Q_t_0749-0758_35"
    INDEX 01 00:46:55
  TRACK 36 AUDIO
    TITLE "1Q_t_0749-0758_36"
    INDEX 01 00:50:67
  TRACK 37 AUDIO
    TITLE "1Q_t_0749-0758_37"
    INDEX 01 00:51:39
  TRACK 38 AUDIO
    TITLE "1Q_t_0749-0758_38"
    INDEX 01 00:52:70
  TRACK 39 AUDIO
    TITLE "1Q_t_0749-0758_39"
    INDEX 01 00:53:03
  TRACK 40 AUDIO
    TITLE "1Q_t_0749-0758_40"
    INDEX 01 00:56:28
  TRACK 41 AUDIO
    TITLE "1Q_t_0749-0758_41"
    INDEX 01 00:56:36
  TRACK 42 AUDIO
    TITLE "1Q_t_0749-0758_42"
    INDEX 01 01:03:01
  TRACK 43 AUDIO
    TITLE "1Q_t_0749-0758_43"
    INDEX 01 01:03:46
  TRACK 44 AUDIO
    TITLE "1Q_t_0749-0758_44"
    INDEX 01 01:04:57
  TRACK 45 AUDIO
    TITLE "1Q_t_0749-0758_45"
    INDEX 01 01:04:69
  TRACK 46 AUDIO
    TITLE "1Q_t_0749-0758_46"
    INDEX 01 01:07:20
  TRACK 47 AUDIO
    TITLE "1Q_t_0749-0758_47"
    INDEX 01 01:07:26
  TRACK 48 AUDIO
    TITLE "1Q_t_0749-0758_48"
    INDEX 01 01:11:22
  TRACK 49 AUDIO
    TITLE "1Q_t_0749-0758_49"
    INDEX 01 01:11:69
  TRACK 50 AUDIO
    TITLE "1Q_t_0749-0758_50"
    INDEX 01 01:12:71
  TRACK 51 AUDIO
    TITLE "1Q_t_0749-0758_51"
    INDEX 01 01:13:05
  TRACK 52 AUDIO
    TITLE "1Q_t_0749-0758_52"
    INDEX 01 01:14:73
  TRACK 53 AUDIO
    TITLE "1Q_t_0749-0758_53"
    INDEX 01 01:15:06
  TRACK 54 AUDIO
    TITLE "1Q_t_0749-0758_54"
    INDEX 01 01:19:24
  TRACK 55 AUDIO
    TITLE "1Q_t_0749-0758_55"
    INDEX 01 01:19:69
  TRACK 56 AUDIO
    TITLE "1Q_t_0749-0758_56"
    INDEX 01 01:20:68
  TRACK 57 AUDIO
    TITLE "1Q_t_0749-0758_57"
    INDEX 01 01:21:01
  TRACK 58 AUDIO
    TITLE "1Q_t_0749-0758_58"
    INDEX 01 01:24:68
  TRACK 59 AUDIO
    TITLE "1Q_t_0749-0758_59"
    INDEX 01 01:24:74
  TRACK 60 AUDIO
    TITLE "1Q_t_0749-0758_60"
    INDEX 01 01:29:45
